# Blender v2.90.1 OBJ File: ''
# www.blender.org
mtllib Teste2.mtl
g Cube_cell_Cube_cell.005
v -1.000000 -1.000000 1.000000
v -1.000000 1.000000 -1.000000
v 0.025773 0.219672 -0.073511
v -0.220603 -0.016930 -1.000000
v -0.180126 0.043445 -1.000000
v -0.443549 -0.349094 -1.000000
v -1.000000 -0.347327 -1.000000
v -0.422132 1.000000 -1.000000
v -0.407722 1.000000 -0.946701
v -1.000000 -0.368348 1.000000
v -1.000000 1.000000 -0.763679
v -0.368223 -0.519197 1.000000
v -0.690999 -1.000000 1.000000
v -1.000000 -0.472657 -0.820454
v -1.000000 -1.000000 -0.064605
v -0.789011 -1.000000 -0.042691
v -0.791231 -1.000000 -0.065944
v -0.834029 -1.000000 -0.065749
v -0.220603 -0.016930 -1.000000
v -0.180126 0.043445 -1.000000
v -0.443549 -0.349094 -1.000000
v -1.000000 -0.347327 -1.000000
v -0.422132 1.000000 -1.000000
v -0.407722 1.000000 -0.946701
v -1.000000 -0.368348 1.000000
v -0.368223 -0.519197 1.000000
v -1.000000 1.000000 -0.763679
v -0.690999 -1.000000 1.000000
v -1.000000 -0.472657 -0.820454
v -1.000000 -1.000000 -0.064605
v -0.789011 -1.000000 -0.042691
v -0.791231 -1.000000 -0.065944
v -0.834029 -1.000000 -0.065749
vt 0.375000 0.500000
vt 0.453956 0.500000
vt 0.625000 0.720460
vt 0.625000 0.750000
vt 0.456584 0.750000
vt 0.440918 0.727557
vt 0.375000 0.633076
vt 0.000000 0.000000
vt 0.949180 0.000000
vt 0.995111 0.950090
vt 0.940020 0.940020
vt 0.375000 0.461375
vt 0.435100 0.421028
vt 0.354254 0.633219
vt 0.348904 0.633243
vt 0.348626 0.630336
vt 0.336375 0.500000
vt 0.044132 0.044132
vt 0.148614 0.100562
vt 0.046492 0.000000
vt 0.953026 0.000000
vt 1.000000 0.050820
vt 1.000000 1.000000
vt 0.068514 0.068514
vt 0.068331 0.000000
vt 0.783045 0.000000
vt 0.953077 0.063148
vt 0.953071 0.953071
vt 0.992159 0.945941
vt 0.996821 0.952626
vt 0.044132 0.000000
vt 0.940020 0.000000
vt 0.046492 0.046492
vt 0.068514 0.000000
vt 0.953071 0.000000
vt 0.953026 0.953026
vt 0.068331 0.068331
vt 0.784813 0.068051
vt 0.783045 0.783045
vt 0.699035 0.743338
vt 0.697233 0.750000
vt 0.625000 0.822233
vt 0.505431 0.852484
vt 0.497884 0.847425
vt 0.456363 0.819556
vn -1.0000 0.0000 0.0000
vn 0.9378 0.2373 -0.2535
vn 0.0000 0.0000 1.0000
vn 0.0000 -1.0000 0.0000
vn 0.8280 -0.5552 -0.0782
vn -0.0026 -0.8200 -0.5724
vn 0.1855 0.7765 0.6023
vn 0.8277 -0.5556 -0.0790
vn -0.0039 -0.8201 -0.5722
vn 0.0000 1.0000 0.0000
vn -0.0000 0.0000 -1.0000
usemtl Material
s off
f 1/1/1 25/2/1 27/3/1 2/4/1 7/5/1 29/6/1 30/7/1
f 3/8/2 20/9/2 23/10/2 24/11/2
f 28/12/3 12/13/3 25/2/3 1/1/3
f 30/7/4 33/14/4 32/15/4 31/16/4 28/17/4 1/1/4
f 26/18/5 13/19/5 16/20/5 19/21/5 20/22/5 3/23/5
f 17/24/6 18/25/6 14/26/6 22/27/6 21/28/6
f 11/29/7 10/30/7 26/31/7 3/8/7 24/32/7
f 16/33/8 17/34/8 21/35/8 19/36/8
f 18/37/9 15/38/9 14/39/9
f 27/3/10 9/40/10 8/41/10 2/4/10
f 8/42/11 5/43/11 4/44/11 6/45/11 7/5/11 2/4/11
g Cube_cell.001_Cube_cell.006
v 1.000000 1.000000 -1.000000
v 1.000000 -1.000000 -1.000000
v 0.027499 0.220078 -0.073380
v 0.525974 -1.000000 -1.000000
v -0.177806 0.044018 -1.000000
v -0.420294 1.000000 -1.000000
v 1.000000 -1.000000 0.353101
v 1.000000 -0.664606 1.000000
v 1.000000 -0.077570 1.000000
v 1.000000 1.000000 0.343650
v -0.405606 1.000000 -0.945550
v 0.832606 -0.417346 1.000000
v 0.803351 -0.373950 1.000000
v 0.564819 -1.000000 -0.888926
v -0.420294 1.000000 -1.000000
v -0.177806 0.044018 -1.000000
v 0.525974 -1.000000 -1.000000
v 1.000000 -1.000000 0.353101
v 1.000000 -0.664606 1.000000
v 1.000000 1.000000 0.343650
v 1.000000 -0.077570 1.000000
v -0.405606 1.000000 -0.945550
v 0.832606 -0.417346 1.000000
v 0.803351 -0.373950 1.000000
v 0.564819 -1.000000 -0.888926
vt 0.375000 0.000000
vt 0.625000 0.000000
vt 0.625000 0.167956
vt 0.490304 0.250000
vt 0.416924 0.250000
vt 0.375000 0.169138
vt 0.042667 0.035376
vt 0.076626 0.000000
vt 0.976026 0.000000
vt 1.000000 0.044807
vt 1.000000 0.000000
vt 1.000000 0.948612
vt 0.453256 0.274581
vt 0.447832 0.270924
vt 0.922415 0.238307
vt 0.976026 0.976026
vt 0.076626 0.076626
vt 0.932635 0.076841
vt 0.125000 0.580862
vt 0.179398 0.736116
vt 0.184253 0.750000
vt 0.125000 0.750000
vt 0.936425 0.024433
vt 0.955836 0.033591
vt 0.939252 0.939252
vt 0.000000 0.000000
vt 0.955193 0.000000
vt 1.000000 0.939252
vt 0.954026 0.949528
vt 0.051388 0.000000
vt 0.697463 0.750000
vt 0.699299 0.743194
vt 0.875000 0.582044
vt 0.875000 0.750000
vt 0.375000 0.940747
vt 0.505502 0.852774
vt 0.625000 0.822463
vt 0.625000 1.000000
vt 0.375000 1.000000
vn 1.0000 0.0000 0.0000
vn -0.7964 -0.5369 0.2785
vn 0.0000 0.0000 1.0000
vn -0.7955 -0.5381 0.2788
vn 0.0000 -1.0000 0.0000
vn -0.6167 0.4094 0.6723
vn -0.9378 -0.2379 0.2530
vn -0.0000 1.0000 0.0000
vn -0.0000 0.0000 -1.0000
usemtl Material
s off
f 35/46/12 34/47/12 53/48/12 54/49/12 52/50/12 51/51/12
f 50/52/13 58/53/13 56/54/13 57/55/13 36/56/13 49/57/13
f 54/49/14 46/58/14 45/59/14 52/50/14
f 41/60/15 56/61/15 58/62/15 40/63/15
f 51/64/16 47/65/16 37/66/16 35/67/16
f 42/68/17 43/69/17 55/70/17 36/71/17 57/72/17
f 55/73/18 39/74/18 49/75/18 36/56/18
f 48/76/19 44/77/19 53/78/19 34/79/19
f 37/80/20 38/81/20 48/82/20 34/83/20 35/84/20
g Cube_cell.002_Cube_cell.001
v -1.000000 1.000000 1.000000
v 1.000000 1.000000 1.000000
v 0.027204 0.219973 -0.071376
v 1.000000 1.000000 0.347000
v 1.000000 -0.064917 0.994631
v 1.000000 -0.073701 1.000000
v -0.406618 1.000000 -0.943797
v -1.000000 -0.365434 1.000000
v -1.000000 1.000000 -0.761269
v -0.403162 -0.508279 1.000000
v -0.366566 -0.517007 1.000000
v 0.800960 -0.372262 1.000000
v 1.000000 1.000000 0.347000
v 1.000000 -0.064917 0.994631
v 1.000000 -0.073701 1.000000
v -0.406618 1.000000 -0.943797
v -1.000000 1.000000 -0.761269
v -1.000000 -0.365434 1.000000
v -0.403162 -0.508279 1.000000
v -0.366566 -0.517007 1.000000
v 0.800960 -0.372262 1.000000
vt 0.625000 0.500000
vt 0.875000 0.500000
vt 0.875000 0.581625
vt 0.699173 0.742975
vt 0.625000 0.720159
vt 0.000000 0.000000
vt 0.955345 0.000000
vt 0.954989 0.954989
vt 1.000000 0.940083
vt 0.991504 0.942621
vt 0.049195 0.000000
vt 1.000000 0.000000
vt 0.059917 0.000000
vt 0.954989 0.000000
vt 0.972858 0.000000
vt 0.972858 0.897573
vt 0.960314 0.949892
vt 0.454321 0.500000
vt 0.436465 0.425395
vt 0.435374 0.420821
vt 0.453467 0.274880
vt 0.490787 0.250000
vt 0.625000 0.250000
vt 0.491885 0.249329
vt 0.625000 0.168375
vt 0.049195 0.049195
vt 0.067365 0.044412
vt 1.000000 0.044655
vt 1.000000 1.000000
vn 0.0000 1.0000 0.0000
vn 0.1037 -0.8368 -0.5375
vn 0.6170 -0.4089 -0.6724
vn -0.1854 -0.7765 -0.6022
vn 0.0000 0.0000 1.0000
vn 1.0000 0.0000 0.0000
vn -1.0000 0.0000 0.0000
vn 0.6161 -0.4108 -0.6720
usemtl Material
s off
f 59/85/21 60/86/21 71/87/21 65/88/21 75/89/21
f 61/90/22 79/91/22 78/92/22
f 74/93/23 62/94/23 72/95/23 61/96/23
f 74/97/24 61/90/24 78/98/24 77/99/24 76/100/24 67/101/24
f 66/102/25 68/103/25 69/104/25 70/105/25 73/106/25 60/107/25 59/85/25
f 73/106/26 63/108/26 71/109/26 60/107/26
f 75/89/27 66/102/27 59/85/27
f 72/110/28 64/111/28 79/112/28 61/113/28
g Cube_cell.003_Cube_cell.002
v -1.000000 -1.000000 -1.000000
v -0.635094 -1.000000 -1.000000
v -0.444381 -0.351592 -1.000000
v -1.000000 -0.349831 -1.000000
v -1.000000 -0.472325 -0.824288
v -1.000000 -1.000000 -0.067900
v -0.833578 -1.000000 -0.068128
v -0.791258 -1.000000 -0.068320
v -0.635094 -1.000000 -1.000000
v -0.444381 -0.351592 -1.000000
v -1.000000 -0.349831 -1.000000
v -1.000000 -1.000000 -0.067900
v -1.000000 -0.472325 -0.824288
v -0.833578 -1.000000 -0.068128
v -0.791258 -1.000000 -0.068320
vt 0.375000 0.750000
vt 0.456271 0.750000
vt 0.456051 0.819452
vt 0.375000 0.795613
vt 0.067714 0.067714
vt 0.067913 0.000000
vt 0.952728 0.000000
vt 0.952515 0.890518
vt 0.785667 0.785667
vt 1.000000 0.932087
vt 0.115339 0.047579
vt 1.000000 0.047272
vt 0.375000 0.633487
vt 0.440959 0.728036
vt 0.329387 0.750000
vt 0.348907 0.633540
vt 0.354197 0.633516
vt 1.000000 0.785667
vt 0.282141 0.068271
vt 1.000000 0.067714
vn 0.0000 0.0000 -1.0000
vn 0.0026 0.8203 0.5719
vn 0.9472 -0.2786 0.1588
vn -1.0000 0.0000 0.0000
vn 0.0000 -1.0000 0.0000
vn 0.0008 0.8201 0.5722
usemtl Material
s off
f 80/114/29 90/115/29 89/116/29 88/117/29
f 86/118/30 94/119/30 82/120/30 83/121/30 84/122/30
f 94/123/31 81/124/31 82/125/31
f 91/126/32 92/127/32 90/115/32 80/114/32
f 88/128/33 87/129/33 93/130/33 91/126/33 80/114/33
f 84/131/34 85/132/34 86/133/34
g Cube_cell.004_Cube_cell.003
v 1.000000 -1.000000 1.000000
v 0.027602 0.217314 -0.071534
v 0.523390 -1.000000 -1.000000
v -0.219413 -0.019379 -1.000000
v -0.178867 0.040973 -1.000000
v -0.441471 -0.350518 -1.000000
v -0.633115 -1.000000 -1.000000
v 1.000000 -1.000000 0.362214
v 1.000000 -0.749591 0.843486
v 1.000000 -0.668321 1.000000
v 0.802126 -0.374790 1.000000
v -0.688572 -1.000000 1.000000
v -0.366175 -0.519932 1.000000
v 0.616377 -1.000000 -0.734426
v -0.787662 -1.000000 -0.044468
v -0.789801 -1.000000 -0.067336
v -0.219413 -0.019379 -1.000000
v -0.178867 0.040973 -1.000000
v -0.441471 -0.350518 -1.000000
v -0.633115 -1.000000 -1.000000
v 0.523390 -1.000000 -1.000000
v 1.000000 -1.000000 0.362214
v 1.000000 -0.749591 0.843486
v 1.000000 -0.668321 1.000000
v 0.802126 -0.374790 1.000000
v -0.366175 -0.519932 1.000000
v -0.688572 -1.000000 1.000000
v 0.616377 -1.000000 -0.734426
v -0.787662 -1.000000 -0.044468
v -0.789801 -1.000000 -0.067336
vt 0.125000 0.500000
vt 0.336071 0.500000
vt 0.348458 0.630559
vt 0.348725 0.633417
vt 0.329139 0.750000
vt 0.184576 0.750000
vt 0.172953 0.716803
vt 0.125000 0.579723
vt 0.375000 0.250000
vt 0.416460 0.250000
vt 0.453151 0.274734
vt 0.435008 0.420772
vt 0.375000 0.461071
vt 0.000000 0.000000
vt 0.955803 0.000000
vt 0.955536 0.955536
vt 0.375000 0.170277
vt 0.406301 0.230436
vt 0.047003 0.047003
vt 0.932472 0.047290
vt 0.932461 0.932461
vt 0.050735 0.050735
vt 0.047107 0.000000
vt 0.954176 0.000000
vt 0.899299 0.851586
vt 1.000000 0.044197
vt 1.000000 1.000000
vt 1.000000 0.901664
vt 0.247383 0.149909
vt 1.000000 0.150374
vt 0.150374 0.150374
vt 0.044164 0.006267
vt 0.050735 0.000000
vt 0.955536 0.000000
vt 0.955407 0.933664
vt 0.901664 0.901664
vt 0.047107 0.047107
vt 1.000000 0.047003
vt 1.000000 0.932461
vt 0.954176 0.954176
vt 0.375000 0.795861
vt 0.456185 0.819816
vt 0.497578 0.847573
vt 0.505122 0.852642
vt 0.375000 0.940424
vn 0.0000 -1.0000 -0.0000
vn -0.0000 0.0000 1.0000
vn -0.1040 0.8368 0.5375
vn 1.0000 0.0000 -0.0000
vn -0.9469 0.2794 -0.1591
vn -0.8275 0.5559 0.0784
vn 0.7970 0.5358 -0.2788
vn 0.7962 0.5369 -0.2789
vn -0.8281 0.5553 0.0774
vn 0.0000 0.0000 -1.0000
usemtl Material
s off
f 95/134/35 121/135/35 123/136/35 124/137/35 101/138/35 97/139/35 122/140/35 116/141/35
f 95/142/36 118/143/36 119/144/36 107/145/36 121/146/36
f 96/147/37 120/148/37 105/149/37
f 116/150/38 117/151/38 118/143/38 95/142/38
f 113/152/39 114/153/39 110/154/39
f 112/155/40 111/156/40 109/157/40 106/158/40 120/159/40 96/160/40
f 103/161/41 102/162/41 108/163/41
f 108/164/42 115/165/42 112/166/42 96/147/42 105/167/42 104/168/42 103/169/42
f 111/170/43 113/171/43 110/172/43 109/173/43
f 101/174/44 100/175/44 98/176/44 99/177/44 97/178/44
